<?xml version="1.0" encoding="UTF-8"?>
<svg width="202px" height="30px" viewBox="0 0 202 30" version="1.1" xmlns="http://www.w3.org/2000/svg" xmlns:xlink="http://www.w3.org/1999/xlink">
    <!-- Generator: Sketch 64 (93537) - https://sketch.com -->
    <title>Group 4 Copy</title>
    <desc>Created with Sketch.</desc>
    <g id="Symbols" stroke="none" stroke-width="1" fill="none" fill-rule="evenodd">
        <g id="Nav-White-/-1440" transform="translate(-24.000000, -24.000000)" fill="#FFFFFF">
            <g id="Group-42" transform="translate(0.000000, 24.000000)">
                <g id="Group-4-Copy" transform="translate(24.000000, 0.000000)">
                    <polygon id="Fill-8" points="0 1.19201978 0 28.1920198 21 28.1920198 21 23.1836002 5.38653523 23.1836002 5.38653523 17.1962296 21 17.1962296 21 12.18781 5.38653523 12.18781 5.38653523 6.2014634 21 6.2014634 21 1.19201978"></polygon>
                    <path d="M39.4880662,14.1715125 C37.9037181,13.0806679 36.057964,12.5682851 34.5759052,12.1566457 L33.9314824,11.9898234 C33.6541646,11.9259109 33.3745738,11.8619985 33.1734048,11.798086 L33.0790713,11.7677547 C32.116415,11.4622749 30.6604968,11.0008054 29.6307842,10.2631042 C28.7613249,9.67164325 28.3555772,8.979439 28.3555772,8.08574807 C28.3555772,6.70350609 30.2092872,5.49025294 32.3221302,5.49025294 C34.4111057,5.49025294 36.2443579,6.70350609 36.2443579,8.08574807 L36.2443579,8.4302253 L41.8020783,8.4302253 L41.8020783,8.08574807 C41.8020783,6.99815328 41.5190778,5.88347695 40.9792174,4.85329504 C40.4586784,3.90977407 39.752882,3.08649515 38.8186394,2.33579476 L38.8129566,2.33254498 C37.0274395,0.952469521 34.7225199,0.19201978 32.3221302,0.19201978 C29.8933268,0.19201978 27.5724955,0.952469521 25.7790226,2.33579476 C24.8459165,3.08649515 24.1401201,3.90977407 23.617308,4.85979461 C23.0797207,5.88347695 22.7955837,6.99923654 22.7955837,8.08574807 C22.7955837,10.6996586 24.0264653,12.9365941 26.3552525,14.5560704 C27.9555123,15.6436652 29.7387563,16.2762901 31.432213,16.7995055 L32.777886,17.1970626 C36.2193538,18.1156685 37.441143,18.7937904 37.441143,20.7718263 C37.441143,21.7305129 37.1206365,22.4108013 36.4193863,22.9221008 C35.6374411,23.5493094 34.2974509,23.8948699 32.6449099,23.8948699 C30.1808735,23.8948699 27.9498295,22.7541953 27.2213022,21.1195533 L27.0792336,20.8032409 L22,22.8701043 L22.1318396,23.1820837 C22.8717324,24.9445505 24.3094658,26.4751993 26.2938789,27.6104576 C28.1828219,28.6460559 30.3786329,29.1920198 32.6449099,29.1920198 C35.5510635,29.1920198 38.0480597,28.4684009 39.8722195,27.0969916 C40.9280727,26.2823788 41.7202468,25.35619 42.2305569,24.3390072 C42.7476863,23.262245 43,22.0955721 43,20.7718263 C43,19.2920908 42.6499432,17.9130986 41.9884722,16.7886729 C41.395194,15.7487416 40.5746063,14.8918816 39.4880662,14.1715125" id="Fill-9"></path>
                    <path d="M58.5216644,23.8939845 C53.4370238,23.8939845 49.2980353,19.7755772 49.2980353,14.7136842 C49.2980353,9.62796032 53.4370238,5.49005504 58.5216644,5.49005504 C63.5846407,5.49005504 67.703048,9.62796032 67.703048,14.7136842 C67.703048,19.7755772 63.5846407,23.8939845 58.5216644,23.8939845 M58.5216644,0.19201978 C50.5144928,0.19201978 44,6.70651253 44,14.7136842 C44,22.6981082 50.5144928,29.1920198 58.5216644,29.1920198 C66.5060885,29.1920198 73,22.6981082 73,14.7136842 C73,6.70651253 66.5060885,0.19201978 58.5216644,0.19201978" id="Fill-11"></path>
                    <polygon id="Fill-13" points="72 6.2004394 80.7857006 6.2004394 80.7857006 28.1920198 86.1691711 28.1920198 86.1691711 6.2004394 95 6.2004394 95 1.19201978 72 1.19201978"></polygon>
                    <polygon id="Fill-15" points="97 28.1920198 118 28.1920198 118 23.1836002 102.385434 23.1836002 102.385434 17.1962296 118 17.1962296 118 12.18781 102.385434 12.18781 102.385434 6.2004394 118 6.2004394 118 1.19201978 97 1.19201978"></polygon>
                    <path d="M125.383213,6.2004394 L134.399627,6.2004394 C136.173853,6.2004394 137.616787,7.54393695 137.616787,9.19361268 C137.616787,10.8443124 136.173853,12.18781 134.399627,12.18781 L125.383213,12.18781 L125.383213,6.2004394 Z M143,9.19361268 C143,4.78218931 139.142269,1.19201978 134.399627,1.19201978 L120,1.19201978 L120,28.1920198 L125.383213,28.1920198 L125.383213,17.1952056 L127.523951,17.1952056 L135.447433,28.0486588 L135.550892,28.1920198 L141.729866,28.1920198 L133.925252,17.1952056 L135.057807,17.1952056 C139.80045,17.1952056 143,13.6070841 143,9.19361268 L143,9.19361268 Z" id="Fill-17"></path>
                    <polygon id="Fill-19" points="145 28.1920198 150 28.1920198 150 1.19201978 145 1.19201978"></polygon>
                    <path d="M180,18.2933234 L175.17205,16.8807501 L175.084847,17.2122282 C174.062011,21.1466348 170.618018,23.8948699 166.711338,23.8948699 C161.918269,23.8948699 158.016719,19.7763087 158.016719,14.7142266 C158.016719,9.62831278 161.918269,5.48916968 166.711338,5.48916968 C170.618018,5.48916968 174.062011,8.23740471 175.084847,12.1718113 L175.17205,12.5043727 L180,11.0907161 L179.911771,10.7581548 C178.267232,4.53698261 172.839122,0.19201978 166.711338,0.19201978 C159.150353,0.19201978 153,6.70567261 153,14.7142266 C153,22.6978657 159.150353,29.1920198 166.711338,29.1920198 C172.839122,29.1920198 178.267232,24.8470569 179.911771,18.6258848 L180,18.2933234 Z" id="Fill-21"></path>
                    <path d="M192.983355,17.0012438 L188.016645,17.0012438 L190.50056,8.54159878 L192.983355,17.0012438 Z M193.215068,1.19201978 L187.830827,1.19201978 L179,28.1920198 L184.598044,28.1920198 L186.729352,21.5531288 L194.272887,21.5531288 L196.45009,28.1920198 L202,28.1920198 L193.215068,1.19201978 Z" id="Fill-22"></path>
                </g>
            </g>
        </g>
    </g>
</svg>