<?xml version="1.0" encoding="utf-8"?>
<!-- Generator: Adobe Illustrator 24.1.2, SVG Export Plug-In . SVG Version: 6.00 Build 0)  -->
<svg version="1.1" id="Layer_1" xmlns="http://www.w3.org/2000/svg" xmlns:xlink="http://www.w3.org/1999/xlink" x="0px" y="0px"
	 viewBox="0 0 504 115.1" style="enable-background:new 0 0 504 115.1;" xml:space="preserve">
<style type="text/css">
	.st0{fill:#FFFFFF;}
</style>
<g>
	<polygon class="st0" points="36,27.3 36,87.8 79.8,87.8 79.8,76.6 47.2,76.6 47.2,63.1 79.8,63.1 79.8,51.9 47.2,51.9 47.2,38.5 
		79.8,38.5 79.8,27.3 	"/>
	<path class="st0" d="M119.2,56.4c-3.2-2.3-6.9-3.4-9.9-4.3l-1.3-0.4c-0.6-0.1-1.1-0.3-1.5-0.4l-0.2-0.1c-1.9-0.6-4.9-1.6-7-3.2
		c-1.8-1.3-2.6-2.7-2.6-4.6c0-2.9,3.7-5.5,8-5.5c4.2,0,7.9,2.6,7.9,5.5v0.7h11.2v-0.7c0-2.3-0.6-4.7-1.7-6.8c-1-2-2.5-3.7-4.4-5.3
		l0,0c-3.6-2.9-8.3-4.5-13.1-4.5c-4.9,0-9.6,1.6-13.2,4.5c-1.9,1.6-3.3,3.3-4.4,5.3c-1.1,2.2-1.7,4.5-1.7,6.8
		c0,5.5,2.5,10.3,7.2,13.7c3.2,2.3,6.8,3.6,10.3,4.8l2.7,0.8c6.9,1.9,9.4,3.4,9.4,7.6c0,2-0.6,3.5-2.1,4.6c-1.6,1.3-4.3,2.1-7.6,2.1
		c-5,0-9.5-2.4-11-5.9l-0.3-0.7l-10.3,4.4l0.3,0.7c1.5,3.7,4.4,7,8.4,9.4c3.8,2.2,8.2,3.4,12.8,3.4c5.9,0,10.9-1.5,14.6-4.4
		c2.1-1.7,3.7-3.7,4.8-5.8c1-2.3,1.6-4.8,1.6-7.6c0-3.1-0.7-6.1-2-8.4C123.1,59.8,121.4,57.9,119.2,56.4"/>
	<path class="st0" d="M160,26.8c-17,0-30.8,13.8-30.8,30.8c0,16.9,13.8,30.7,30.8,30.7c16.9,0,30.7-13.8,30.7-30.7
		C190.7,40.6,177,26.8,160,26.8 M160,77c-10.8,0-19.5-8.7-19.5-19.5c0-10.8,8.8-19.5,19.5-19.5c10.7,0,19.5,8.8,19.5,19.5
		C179.5,68.3,170.8,77,160,77"/>
	<polygon class="st0" points="188.3,38.5 206.6,38.5 206.6,87.8 217.9,87.8 217.9,38.5 236.3,38.5 236.3,27.3 188.3,27.3 	"/>
	<polygon class="st0" points="242.3,87.8 286,87.8 286,76.6 253.5,76.6 253.5,63.1 286,63.1 286,51.9 253.5,51.9 253.5,38.5 
		286,38.5 286,27.3 242.3,27.3 	"/>
	<path class="st0" d="M341,45.2c0-9.9-8-17.9-17.9-17.9h-30v60.5h11.2V63.1h4.5l16.5,24.3l0.2,0.3h12.9L322,63.1h2.4
		C334.3,63.1,341,55.1,341,45.2 M304.2,38.5H323c3.7,0,6.7,3,6.7,6.7c0,3.7-3,6.7-6.7,6.7h-18.8V38.5z"/>
	<rect x="345.1" y="27.3" class="st0" width="11.2" height="60.5"/>
	<path class="st0" d="M421.8,65.2l-10.8-3l-0.2,0.7c-2.3,8.3-10,14.2-18.7,14.2c-10.7,0-19.5-8.7-19.5-19.5
		c0-10.8,8.7-19.5,19.5-19.5c8.7,0,16.4,5.8,18.7,14.2l0.2,0.7l10.8-3l-0.2-0.7C417.9,36,405.7,26.8,392,26.8
		c-16.9,0-30.7,13.8-30.7,30.8c0,16.9,13.8,30.7,30.7,30.7c13.7,0,25.9-9.2,29.5-22.4L421.8,65.2z"/>
	<path class="st0" d="M449.5,27.3h-11l-18.1,60.5h11.5l4.4-14.9h15.5l4.5,14.9h11.4L449.5,27.3z M449,62.7h-10.2l5.1-19L449,62.7z"
		/>
</g>
</svg>
